<svg width="32" height="32" viewBox="0 0 32 32" fill="none" xmlns="http://www.w3.org/2000/svg">
<path d="M0.865623 15.6282C0.865623 7.09544 7.78283 0.178223 16.3156 0.178223V0.178223C24.8484 0.178223 31.7656 7.09542 31.7656 15.6282V31.0782H0.865623V15.6282Z" fill="#F3AFA8"/>
<path d="M8.88178 24.613L10.526 24.613L10.526 22.9114L8.88178 22.9114L8.88178 24.613ZM22.5708 10.6555C22.5708 10.5404 22.4806 10.4471 22.3694 10.4471L20.557 10.4471C20.4458 10.4471 20.3557 10.5404 20.3557 10.6555C20.3557 10.7706 20.4458 10.8639 20.557 10.8639L22.1681 10.8639L22.1681 12.531C22.1681 12.6461 22.2582 12.7394 22.3694 12.7394C22.4806 12.7394 22.5708 12.6461 22.5708 12.531L22.5708 10.6555ZM9.84629 23.9096L22.5118 10.8028L22.227 10.5081L9.5615 23.6149L9.84629 23.9096Z" fill="#2D2D2D"/>
</svg>
